# xmcd
#
# Track frame offsets:
#	150
#	11142
#	28266
#	47544
#	67584
#	90328
#	108467
#	124513
#	144053
#	162694
#
# Disc length: 2393 seconds
#
# Revision: 0
# Processed by: cddbd v1.4PL0 Copyright (c) Steve Scherf et al.
# Submitted via: dBpowerAMP V4.0
#
DISCID=7609570a
DTITLE=Dikki Du and The Zydeco Crew - Zydeco Iko Iko
DYEAR=1900
DGENRE=
TTITLE0=Dikki Du Intro
TTITLE1=The Way It Is
TTITLE2=Zydeco Iko Iko
TTITLE3=Higher Ground
TTITLE4=I Want My Baby Back
TTITLE5=Days Are Crowded
TTITLE6=Knockin' At My Door
TTITLE7=Thursday Night At The Offshore Lounge
TTITLE8=Down On The Bayou
TTITLE9=Oh Bye Bye
EXTD=Cool Zydeco From New Orleans
EXTT0=
EXTT1=
EXTT2=
EXTT3=
EXTT4=
EXTT5=
EXTT6=
EXTT7=
EXTT8=
EXTT9=
PLAYORDER=
